<svg height="480pt" viewBox="-36 0 480 480.00019" width="480pt" xmlns="http://www.w3.org/2000/svg">
<path fill="white" d="m29.648438 387.136719c-4.953126 6.464843-29.648438 39.566406-29.648438 56.863281 0 19.882812 16.117188 36 36 36s36-16.117188 36-36c0-17.296875-24.695312-50.398438-29.648438-56.863281-1.574218-1.882813-3.898437-2.96875-6.351562-2.96875s-4.777344 1.085937-6.351562 2.96875zm6.351562 76.863281c-11.046875 0-20-8.953125-20-20 0-7.199219 10.273438-24.527344 20-38.398438 9.726562 13.863282 20 31.199219 20 38.398438 0 11.046875-8.953125 20-20 20zm0 0"/>
<path fill="white" d="m360 0c-12.738281-.0351562-24.957031 5.027344-33.9375 14.0625l-62.222656 62.21875-5.664063-5.664062c-9.375-9.375-24.574219-9.371094-33.949219.003906-9.371093 9.375-9.371093 24.574218.003907 33.945312l5.65625 5.65625-155.253907 155.265625c-3.074218 3.074219-5.253906 6.925781-6.304687 11.144531l-9.128906 36.65625c-.355469 1.40625-1.085938 2.691407-2.109375 3.71875l-19.488282 19.496094c-6.242187 6.027344-8.742187 14.949219-6.546874 23.339844 2.195312 8.390625 8.75 14.945312 17.140624 17.140625 8.390626 2.195313 17.316407-.304687 23.339844-6.542969l19.488282-19.488281c1.03125-1.027344 2.316406-1.761719 3.730468-2.121094l36.652344-9.160156c4.21875-1.050781 8.074219-3.230469 11.144531-6.304687l109.328125-109.367188h4.121094v-4.121094l41.777344-41.765625 5.65625 5.65625c9.371094 9.371094 24.570312 9.371094 33.941406 0 9.375-9.375 9.375-24.570312 0-33.945312l-5.664062-5.664063 62.226562-62.222656c13.722656-13.730469 17.828125-34.371094 10.398438-52.304688-7.425782-17.933593-24.925782-29.62890575-44.335938-29.632812zm-228.800781 322.054688c-1.019531 1.023437-2.300781 1.75-3.703125 2.105468l-36.664063 9.160156c-4.21875 1.054688-8.074219 3.234376-11.152343 6.3125l-19.496094 19.496094c-3.160156 3.035156-8.152344 3.035156-11.3125 0-3.117188-3.125-3.117188-8.179687 0-11.304687l19.503906-19.503907c3.074219-3.074218 5.25-6.925781 6.304688-11.144531l9.160156-36.664062c.355468-1.402344 1.082031-2.683594 2.105468-3.703125l52.796876-52.800782h90.515624zm114.058593-114.054688h-90.515624l86.457031-86.464844 45.265625 45.265625zm80.796876-35.542969c-1.5 1.5-3.535157 2.34375-5.660157 2.34375-2.121093 0-4.15625-.84375-5.660156-2.34375l-11.308594-11.3125-56.578125-56.578125-11.3125-11.308594c-3.125-3.128906-3.125-8.195312 0-11.320312 3.125-3.128906 8.195313-3.128906 11.320313 0l11.304687 11.300781 56.566406 56.570313 11.3125 11.3125c1.511719 1.496094 2.363282 3.535156 2.367188 5.664062.003906 2.125-.839844 4.167969-2.34375 5.671875zm56.5625-101.832031-62.21875 62.222656-45.246094-45.253906 62.222656-62.21875c12.65625-12.097656 32.59375-12.097656 45.25 0 12.492188 12.496094 12.492188 32.753906 0 45.25zm0 0"/></svg>