<?xml version="1.0" encoding="iso-8859-1"?>
<!-- Generator: Adobe Illustrator 19.0.0, SVG Export Plug-In . SVG Version: 6.00 Build 0)  -->
<svg version="1.1" id="Layer_1" xmlns="http://www.w3.org/2000/svg" xmlns:xlink="http://www.w3.org/1999/xlink" x="0px" y="0px"
	 viewBox="0 0 512 512" style="enable-background:new 0 0 512 512;" xml:space="preserve">
<path style="fill: white;" d="M374.847,52.937V18.286C374.847,8.203,366.644,0,356.561,0h-52.245c-10.082,0-18.286,8.203-18.286,18.286v34.651
	l-62.694,120.162v114.248h10.449v24.743h15.673v-24.743h188.082V173.099L374.847,52.937z M416.777,167.184H244.102l54.517-104.49
	h63.643L416.777,167.184z M301.704,18.286c0-1.44,1.171-2.612,2.612-2.612h52.245c1.441,0,2.612,1.172,2.612,2.612V47.02h-57.469
	V18.286z M239.01,271.673v-88.816h182.857v88.816H239.01z"/>
<path style="fill: white;" d="M427.092,300.408h-15.673v86.204H304.296v15.673h117.572v70.531c0,12.964-10.547,23.51-23.51,23.51H262.521
	c-4.924,0-9.613-1.526-13.512-4.265c13.74-7.695,26.864-17.542,38.747-29.425c24.537-24.537,7.75-79.768-38.217-125.736
	c-45.969-45.968-101.199-62.757-125.737-38.217c-47.749,47.75-62.712,115.496-36.645,163.064
	c-5.626,11.707-4.091,24.829,4.307,33.228c8.398,8.398,21.519,9.932,33.228,4.307c15.625,8.563,33.43,12.7,51.988,12.7
	c18.789,0,38.351-4.246,57.207-12.424c7.349,7.881,17.64,12.443,28.633,12.443h135.837c21.606,0,39.184-17.577,39.184-39.184
	v-86.204h-10.449V300.408z M130.496,316.459l56.364,56.364h-44.957c-4.093-7.295-7.397-14.574-9.76-21.665
	C127.44,337.054,126.94,324.918,130.496,316.459z M197.944,388.496v46.018c-8.512-6.115-16.885-13.222-24.84-21.178
	c-7.956-7.956-15.063-16.329-21.178-24.84L197.944,388.496L197.944,388.496z M213.617,399.58l56.364,56.364
	c-8.456,3.555-20.592,3.056-34.699-1.647c-7.091-2.364-14.368-5.668-21.664-9.76V399.58H213.617z M281.063,444.86l-56.364-56.364
	h44.957c4.093,7.295,7.397,14.574,9.76,21.665C284.119,424.266,284.619,436.402,281.063,444.86z M259.634,372.823h-46.017v-46.017
	c8.511,6.115,16.883,13.222,24.838,21.178C246.411,355.939,253.519,364.311,259.634,372.823z M176.277,307.022
	c7.092,2.364,14.37,5.668,21.666,9.761v44.957l-56.358-56.358c3.671-1.543,8.016-2.342,12.937-2.342
	C160.937,303.041,168.295,304.362,176.277,307.022z M128.843,483.575l-4.258-2.61l-4.164,2.759
	c-6.288,4.164-13.805,4.237-17.872,0.169c-4.068-4.068-3.996-11.583,0.168-17.872l2.759-4.164l-2.61-4.258
	C82.277,424.01,87.1,377.019,112.903,336.973c0.68,6.015,2.131,12.42,4.371,19.141c7.596,22.787,23.487,47.044,44.747,68.305
	c28.828,28.827,61.294,46.172,87.552,49.053C209.506,499.333,162.461,504.183,128.843,483.575z"/>
<g>
</g>
<g>
</g>
<g>
</g>
<g>
</g>
<g>
</g>
<g>
</g>
<g>
</g>
<g>
</g>
<g>
</g>
<g>
</g>
<g>
</g>
<g>
</g>
<g>
</g>
<g>
</g>
<g>
</g>
</svg>
