<svg id="Capa_1" enable-background="new 0 0 511.641 511.641" height="512" viewBox="0 0 511.641 511.641" width="512" xmlns="http://www.w3.org/2000/svg"><g fill="white" ><path d="m386.52 269.346-69.854-25.629v-92.081c.001-.046.007-.09.007-.135v-22.824c6.568-8.061 10.153-18.095 10.153-28.577v-40.57c0-7.616-6.196-13.813-13.813-13.813h-11.188v-38.217c0-4.142-3.357-7.5-7.5-7.5h-15.607c-2.063 0-4.036.851-5.453 2.351l-6.715 7.111-6.362-7.005c-1.421-1.564-3.437-2.457-5.552-2.457h-37.311c-4.143 0-7.5 3.358-7.5 7.5v38.217h-11.188c-7.616 0-13.813 6.196-13.813 13.813v40.57c0 10.812 3.814 20.747 10.16 28.542v114.606l-70.016 26.052c-15.198 5.655-24.424 20.845-22.436 36.939l21.993 178.038c1.927 15.6 15.233 27.364 30.952 27.364h200.695c15.719 0 29.025-11.764 30.952-27.364l21.981-177.937c1.999-16.17-7.289-31.382-22.585-36.994zm-161.694-254.346h26.49l9.575 10.542c1.404 1.546 3.39 2.437 5.479 2.457 2.117.052 4.092-.831 5.526-2.351l10.056-10.648h4.874v30.717h-62zm-85.101 310.5c.007 0 .014.001.021.001.005 0 .01-.001.016-.001h170.322c3.467 0 6.653 1.419 8.973 3.996s3.397 5.894 3.034 9.342l-9.879 93.852c-.648 6.163-5.811 10.81-12.008 10.81h-165.601l-1.235-10h102.958c4.143 0 7.5-3.358 7.5-7.5s-3.357-7.5-7.5-7.5h-104.812l-8.4-68h172.611l-7.158 68h-22.241c-4.143 0-7.5 3.358-7.5 7.5s3.357 7.5 7.5 7.5h28.993c3.838 0 7.057-2.898 7.459-6.715l8.737-83c.223-2.114-.463-4.223-1.885-5.803-1.423-1.58-3.448-2.482-5.574-2.482h-182.795l-1.235-10zm254.495-20.999-21.981 177.937c-1 8.097-7.906 14.203-16.065 14.203h-200.696c-8.159 0-15.065-6.106-16.065-14.203l-2.957-23.938h13.099l2.293 18.56c.464 3.758 3.657 6.581 7.443 6.581h193.07c3.786 0 6.979-2.822 7.443-6.581l20.218-163.659c1.155-9.358-4.221-18.163-13.072-21.41l-78.284-28.722v-74.404c0-4.142-3.357-7.5-7.5-7.5s-7.5 3.358-7.5 7.5v79.641c0 3.146 1.963 5.958 4.917 7.041l83.201 30.526c2.27.833 3.647 3.09 3.352 5.49l-19.406 157.078h-179.808l-1.253-10.141h135.535c13.896 0 25.471-10.421 26.926-24.24l9.879-93.852c.802-7.619-1.678-15.255-6.804-20.949s-12.46-8.959-20.121-8.959h-163.616c.105-2.032 1.395-3.838 3.36-4.569l83.273-30.986c2.937-1.093 4.885-3.896 4.885-7.029v-79.05c0-4.142-3.357-7.5-7.5-7.5s-7.5 3.358-7.5 7.5v73.839l-78.389 29.168c-7.923 2.948-13.024 10.375-13.121 18.628h-13.303l-.753-6.1c-1.133-9.168 4.122-17.82 12.779-21.042l74.902-27.871c2.937-1.093 4.885-3.896 4.885-7.029v-107.809c6.067 3.023 12.898 4.733 20.124 4.733 4.143 0 7.5-3.358 7.5-7.5s-3.357-7.5-7.5-7.5c-16.699 0-30.284-13.585-30.284-30.284v-39.382h10v6.283c0 4.142 3.357 7.5 7.5 7.5s7.5-3.358 7.5-7.5v-6.283h62v34.594c0 5.894-4.795 10.689-10.689 10.689h-40.621c-5.554 0-10.127-4.166-10.636-9.689-.381-4.125-4.043-7.164-8.157-6.779-4.125.38-7.16 4.033-6.78 8.157 1.227 13.29 12.221 23.311 25.573 23.311h40.621c14.165 0 25.689-11.524 25.689-25.689v-34.594h10v39.382c0 7.697-2.89 15.032-8.137 20.655-1.296 1.389-2.017 3.217-2.017 5.117v15.493c-.001.046-.007.09-.007.135v107.454c0 3.146 1.963 5.958 4.917 7.041l74.771 27.433c8.714 3.198 14.005 11.864 12.867 21.074z"/><path d="m277.826 130h-26c-4.143 0-7.5 3.358-7.5 7.5s3.357 7.5 7.5 7.5h26c4.143 0 7.5-3.358 7.5-7.5s-3.358-7.5-7.5-7.5z"/><path d="m273.326 384.5c0-14.612-11.888-26.5-26.5-26.5s-26.5 11.888-26.5 26.5 11.888 26.5 26.5 26.5 26.5-11.888 26.5-26.5zm-26.5 11.5c-6.341 0-11.5-5.159-11.5-11.5s5.159-11.5 11.5-11.5 11.5 5.159 11.5 11.5-5.159 11.5-11.5 11.5z"/><path d="m200.826 377h-10c-4.143 0-7.5 3.358-7.5 7.5s3.357 7.5 7.5 7.5h10c4.143 0 7.5-3.358 7.5-7.5s-3.358-7.5-7.5-7.5z"/><path d="m170.826 377h-26c-4.143 0-7.5 3.358-7.5 7.5s3.357 7.5 7.5 7.5h26c4.143 0 7.5-3.358 7.5-7.5s-3.358-7.5-7.5-7.5z"/></g></svg>