<svg id="Capa_1" enable-background="new 0 0 512.01 512.01" height="50" viewBox="0 0 512.01 512.01" width="50" xmlns="http://www.w3.org/2000/svg"><g fill="#43658b"><path d="m90.03 386.363c0 54.128 44.046 98.247 98.247 98.247 54.129 0 98.247-44.047 98.247-98.247 0-54.113-44.03-98.248-98.247-98.248-54.113 0-98.247 44.031-98.247 98.248zm34.351-53.289 45.789 45.789h-64.786c1.556-17.329 8.433-33.144 18.997-45.789zm-18.996 60.789h64.786l-45.789 45.789c-10.565-12.645-17.442-28.46-18.997-45.789zm75.392 75.393c-17.329-1.556-33.144-8.433-45.789-18.997l45.789-45.789zm0-101-45.789-45.789c12.645-10.564 28.46-17.441 45.789-18.997zm71.396 71.396-45.789-45.789h64.786c-1.556 17.329-8.433 33.144-18.997 45.789zm18.997-60.789h-64.786l45.789-45.789c10.564 12.645 17.441 28.46 18.997 45.789zm-75.393-75.393c17.329 1.556 33.144 8.433 45.789 18.997l-45.789 45.789zm0 101 45.789 45.789c-12.645 10.564-28.46 17.441-45.789 18.997z"/><path d="m219.236 125.275h64.893c4.143 0 7.5-3.358 7.5-7.5s-3.357-7.5-7.5-7.5h-64.893c-8.378 0-15.193 6.815-15.193 15.193v136.235c-5.166-.65-10.427-.987-15.766-.987-69.281 0-125.646 56.365-125.646 125.647s56.365 125.647 125.646 125.647c11.731 0 23.089-1.621 33.868-4.642 5.336 3.032 11.321 4.642 17.535 4.642h133.485c19.651 0 35.639-15.987 35.639-35.638 0-6.522 0-125.687 0-132.273 0-4.142-3.357-7.5-7.5-7.5s-7.5 3.358-7.5 7.5v120.74h-107.478c17.257-21.518 27.598-48.81 27.598-78.475 0-58.671-40.424-108.073-94.881-121.831v-76.175h174.762v120.74c0 4.142 3.357 7.5 7.5 7.5s7.5-3.358 7.5-7.5c0-9.908 0-179.469 0-183.63 0-8.377-6.815-15.193-15.193-15.193h-13.101v-36.23l57.902-33.24c10.447-5.999 14.067-19.378 8.07-29.825-6.01-10.471-19.353-14.086-29.826-8.071l-59.091 33.921c-12.801 7.349-20.753 21.084-20.753 35.844v37.601h-17.685c-4.143 0-7.5 3.358-7.5 7.5s3.357 7.5 7.5 7.5h17.685v48.083h-117.77v-47.89c0-.107.087-.193.193-.193zm174.277 354.563c-1.653 9.736-10.148 17.171-20.348 17.171h-125.363c8.757-4.73 16.977-10.504 24.402-17.171zm-94.589-93.475c0 61.011-49.636 110.646-110.646 110.646s-110.647-49.635-110.647-110.646 49.636-110.647 110.646-110.647 110.647 49.636 110.647 110.647zm94.687-261.088c.106 0 .193.086.193.193v47.89h-13.294v-48.083zm-41.798-52.601c0-9.403 5.066-18.154 13.222-22.835l59.092-33.922c3.28-1.883 7.463-.753 9.347 2.53 1.881 3.275.745 7.469-2.529 9.349l-59.09 33.922c-3.913 2.246-6.344 6.444-6.344 10.956v37.601h-13.697v-37.601zm0 52.601h13.697v48.083h-13.697z"/></g></svg>