<svg height="682pt" viewBox="-43 -21 682 682.66667" width="682pt" xmlns="http://www.w3.org/2000/svg">
<path fill="white" d="m30.238281 480c-4.769531-.003906-8.953125-3.175781-10.253906-7.765625-28.203125-99.527344-28.203125-204.933594 0-304.464844.917969-3.804687 3.84375-6.796875 7.617187-7.808593 3.78125-1.007813 7.808594.132812 10.5 2.96875 2.6875 2.839843 3.605469 6.925781 2.394532 10.640624-27.113282 95.738282-27.113282 197.125 0 292.863282.910156 3.214844.261718 6.671875-1.757813 9.335937-2.011719 2.664063-5.160156 4.230469-8.5 4.230469zm0 0"/>
<path fill="white" d="m563.160156 480c-3.339844 0-6.488281-1.566406-8.5-4.230469-2.015625-2.664062-2.667968-6.121093-1.757812-9.335937 27.113281-95.738282 27.113281-197.125 0-292.863282-1.210938-3.714843-.292969-7.800781 2.398437-10.640624 2.6875-2.835938 6.71875-3.976563 10.496094-2.96875 3.773437 1.011718 6.699219 4.003906 7.617187 7.808593 28.199219 99.53125 28.199219 204.9375 0 304.464844-1.296874 4.589844-5.484374 7.761719-10.253906 7.765625zm0 0"/>
<path fill="white" d="m471.4375 640h-349.480469c-14.453125.125-27.957031-7.195312-35.742187-19.382812-12.546875-19.738282-23.832032-40.257813-33.777344-61.429688-2.378906-5.3125-.058594-11.546875 5.207031-14.011719 5.273438-2.472656 11.550781-.257812 14.109375 4.96875 9.554688 20.347657 20.382813 40.0625 32.433594 59.039063 3.925781 5.976562 10.621094 9.550781 17.769531 9.480468h349.480469c7.132812.054688 13.808594-3.507812 17.730469-9.472656 12.046875-18.976562 22.878906-38.699218 32.4375-59.046875 2.558593-5.226562 8.832031-7.441406 14.105469-4.96875 5.269531 2.464844 7.585937 8.699219 5.214843 14.011719-9.941406 21.171875-21.210937 41.695312-33.742187 61.441406-7.785156 12.183594-21.289063 19.496094-35.746094 19.371094zm0 0"/>
<path fill="white" d="m531.273438 96.003906c-4.148438.003906-7.910157-2.394531-9.667969-6.144531-9.558594-20.347656-20.386719-40.0625-32.4375-59.035156-3.917969-5.96875-10.589844-9.539063-17.730469-9.488281h-349.480469c-7.128906-.050782-13.804687 3.515624-17.722656 9.472656-12.046875 18.984375-22.882813 38.703125-32.4375 59.050781-2.5 5.347656-8.859375 7.65625-14.203125 5.15625-5.347656-2.496094-7.65625-8.855469-5.15625-14.203125 9.933594-21.171875 21.203125-41.691406 33.734375-61.433594 7.792969-12.199218 21.316406-19.519531 35.785156-19.37499975h349.480469c14.457031-.12890625 27.964844 7.19531275 35.746094 19.38281275 12.550781 19.742187 23.835937 40.257812 33.78125 61.425781 1.550781 3.308594 1.296875 7.183594-.667969 10.261719-1.96875 3.082031-5.371094 4.941406-9.023437 4.929687zm0 0"/>
<path fill="white" d="m98.824219 480c-5.035157-.003906-9.382813-3.53125-10.421875-8.457031-20.917969-99.945313-20.917969-203.140625 0-303.078125 1.222656-5.769532 6.878906-9.449219 12.648437-8.234375 5.761719 1.222656 9.445313 6.886719 8.226563 12.648437-20.324219 97.027344-20.324219 197.21875 0 294.25.585937 2.769532.046875 5.660156-1.5 8.03125-1.546875 2.375-3.972656 4.035156-6.746094 4.621094-.722656.144531-1.464844.21875-2.207031.21875zm0 0"/><path fill="white" d="m494.578125 480c-.742187 0-1.484375-.074219-2.207031-.21875-2.773438-.585938-5.199219-2.246094-6.75-4.621094-1.546875-2.371094-2.082032-5.261718-1.496094-8.03125 20.316406-97.03125 20.316406-197.222656 0-294.25-1.222656-5.761718 2.464844-11.425781 8.226562-12.648437 5.765626-1.214844 11.425782 2.464843 12.644532 8.234375 20.917968 99.9375 20.917968 203.132812 0 303.078125-1.039063 4.925781-5.382813 8.453125-10.417969 8.457031zm0 0"/><path fill="white" d="m439.3125 640h-285.226562c-4.023438.003906-7.703126-2.257812-9.527344-5.847656-12.40625-24.582032-23.171875-49.964844-32.21875-75.976563-1.367188-3.625-.660156-7.703125 1.84375-10.664062 2.511718-2.953125 6.421875-4.3125 10.21875-3.558594 3.800781.757813 6.890625 3.515625 8.074218 7.203125 8.027344 23.054688 17.441407 45.601562 28.203126 67.507812h272c10.789062-21.90625 20.234374-44.453124 28.285156-67.507812 2.039062-5.414062 8.027344-8.210938 13.492187-6.308594 5.46875 1.90625 8.417969 7.816406 6.648438 13.328125-9.050781 26.011719-19.8125 51.394531-32.226563 75.976563-1.824218 3.605468-5.527344 5.871094-9.566406 5.847656zm0 0"/>
<path fill="white" d="m470.992188 96.003906c-4.535157 0-8.578126-2.871094-10.066407-7.160156-8.027343-23.050781-17.445312-45.59375-28.203125-67.507812h-272c-10.792968 21.90625-20.234375 44.457031-28.285156 67.507812-2.042969 5.421875-8.027344 8.21875-13.496094 6.3125-5.464844-1.902344-8.414062-7.816406-6.648437-13.328125 9.0625-26.011719 19.84375-51.394531 32.265625-75.976563 1.824218-3.589843 5.503906-5.84765575 9.527344-5.84765575h285.226562c4.023438 0 7.707031 2.25781275 9.523438 5.84765575 12.410156 24.585938 23.179687 49.964844 32.226562 75.976563 1.136719 3.261719.625 6.871094-1.378906 9.6875-2 2.8125-5.238282 4.488281-8.691406 4.488281zm0 0"/>
<path fill="white" d="m214.042969 234.667969h-.542969c-2.828125-.136719-5.484375-1.386719-7.382812-3.480469-1.902344-2.09375-2.894532-4.859375-2.757813-7.6875.847656-17.953125 2.046875-36.019531 3.546875-53.714844.535156-5.863281 5.671875-10.21875 11.542969-9.785156 2.820312.242188 5.425781 1.59375 7.253906 3.75 1.824219 2.164062 2.714844 4.96875 2.472656 7.785156-1.46875 17.441406-2.644531 35.253906-3.484375 52.949219-.257812 5.691406-4.945312 10.179687-10.648437 10.183594zm0 0"/><path fill="white" d="m217.542969 480c-5.558594.019531-10.199219-4.230469-10.667969-9.769531-1.503906-17.695313-2.695312-35.761719-3.550781-53.71875-.136719-2.832031.855469-5.605469 2.765625-7.703125 1.910156-2.09375 4.578125-3.34375 7.410156-3.472656 5.859375-.214844 10.820312 4.289062 11.167969 10.140624.84375 17.695313 2.015625 35.507813 3.488281 52.949219.25 2.824219-.632812 5.632813-2.453125 7.804688-1.816406 2.167969-4.429687 3.523437-7.253906 3.769531-.296875 0-.609375 0-.90625 0zm0 0"/><path fill="white" d="m375.859375 480c-.300781 0-.613281 0-.910156 0-2.816407-.234375-5.425781-1.585938-7.25-3.75-1.828125-2.164062-2.714844-4.960938-2.476563-7.777344 1.46875-17.441406 2.648438-35.203125 3.488282-52.949218.351562-5.871094 5.316406-10.390626 11.1875-10.1875 2.828124.132812 5.484374 1.386718 7.382812 3.480468 1.90625 2.097656 2.898438 4.859375 2.761719 7.6875-.851563 17.949219-2.046875 36.019532-3.550781 53.714844-.464844 5.53125-5.089844 9.785156-10.632813 9.78125zm0 0"/><path fill="white" d="m379.351562 234.667969c-5.691406.003906-10.386718-4.460938-10.660156-10.15625-.847656-17.695313-2.019531-35.507813-3.488281-52.949219-.449219-3.859375 1.246094-7.660156 4.414063-9.910156 3.167968-2.25 7.316406-2.601563 10.816406-.914063 3.5 1.691407 5.804687 5.152344 6.015625 9.035157 1.503906 17.699218 2.699219 35.765624 3.554687 53.71875.285156 5.875-4.230468 10.875-10.105468 11.175781zm0 0"/><path fill="white" d="m353.769531 640h-114.136719c-5.070312.003906-9.4375-3.566406-10.453124-8.53125-4.917969-24.535156-9.214844-49.886719-12.800782-75.265625-.605468-3.808594.890625-7.644531 3.914063-10.035156 3.019531-2.394531 7.097656-2.96875 10.667969-1.511719 3.5625 1.460938 6.0625 4.738281 6.539062 8.558594 3.105469 22.039062 6.769531 44.023437 10.910156 65.496094h96.578125c4.136719-21.472657 7.808594-43.457032 10.914063-65.496094.472656-3.820313 2.972656-7.097656 6.539062-8.558594 3.566406-1.457031 7.644532-.882812 10.667969 1.511719 3.023437 2.390625 4.515625 6.226562 3.910156 10.035156-3.582031 25.378906-7.878906 50.699219-12.796875 75.265625-1.015625 4.964844-5.386718 8.535156-10.453125 8.53125zm0 0"/><path fill="white" d="m366.449219 96.003906c-5.308594-.007812-9.804688-3.917968-10.546875-9.171875-3.105469-22.039062-6.777344-44.023437-10.914063-65.496093h-96.578125c-4.140625 21.472656-7.804687 43.457031-10.910156 65.496093-.476562 3.824219-2.976562 7.09375-6.539062 8.558594-3.570313 1.460937-7.648438.886719-10.667969-1.507813-3.023438-2.398437-4.519531-6.230468-3.914063-10.039062 3.585938-25.375 7.882813-50.695312 12.800782-75.261719 1.015624-4.964843 5.382812-8.535156 10.453124-8.535156h114.136719c5.066407 0 9.4375 3.570313 10.453125 8.535156 4.917969 24.53125 9.214844 49.886719 12.796875 75.261719.824219 5.832031-3.238281 11.226562-9.066406 12.050781-.5.074219-1 .109375-1.503906.109375zm0 0"/><path fill="white" d="m571.03125 181.335938h-548.667969c-6.566406.003906-12.769531-3.023438-16.8125-8.195313-4.042969-5.175781-5.4765622-11.929687-3.890625-18.300781l16-64c2.375-9.503906 10.910156-16.171875 20.703125-16.171875h516.671875c9.785156 0 18.320313 6.667969 20.695313 16.164062l15.996093 64c1.59375 6.371094.160157 13.125-3.878906 18.300781-4.042968 5.175782-10.242187 8.203126-16.816406 8.203126zm-15.996094-85.332032h-516.671875l-16 63.996094h548.703125zm0 0"/><path fill="white" d="m555.035156 565.335938h-516.671875c-9.785156-.003907-18.320312-6.664063-20.691406-16.164063l-16-63.996094c-1.59375-6.371093-.164063-13.125 3.878906-18.300781 4.042969-5.179688 10.246094-8.203125 16.8125-8.207031h548.667969c6.574219 0 12.773438 3.019531 16.816406 8.195312 4.042969 5.175781 5.480469 11.929688 3.890625 18.300781l-16 64c-2.371093 9.5-10.90625 16.171876-20.703125 16.171876zm-532.671875-85.335938 16 64.003906h516.671875l15.996094-64.003906zm0 0"/><path fill="white" d="m447.292969 426.667969h-301.183594c-10.75-.003907-19.835937-7.96875-21.246094-18.621094-7.492187-58.457031-7.492187-117.621094 0-176.078125 1.410157-10.65625 10.492188-18.625 21.246094-18.632812h301.183594c10.746093.003906 19.832031 7.96875 21.246093 18.621093 7.488282 58.453125 7.488282 117.625 0 176.074219-1.414062 10.660156-10.496093 18.628906-21.246093 18.636719zm-301.183594-192c-7.34375 56.652343-7.375 114.007812-.085937 170.667969h301.269531c.039062-.003907.078125-.023438.105469-.054688 7.261718-56.632812 7.261718-113.96875 0-170.601562zm0 0"/><path fill="white" d="m179.371094 384.003906c-5.894532 0-10.671875-4.777344-10.671875-10.667968v-96c0-5.890626 4.777343-10.664063 10.671875-10.664063 5.886718 0 10.664062 4.773437 10.664062 10.664063v96c0 5.890624-4.777344 10.667968-10.664062 10.667968zm0 0"/><path fill="white" d="m211.367188 341.332031h-31.996094c-5.894532 0-10.671875-4.773437-10.671875-10.664062v-53.332031c0-5.890626 4.777343-10.664063 10.671875-10.664063h31.996094c17.675781 0 32 14.324219 32 31.996094v10.667969c0 17.671874-14.324219 31.996093-32 31.996093zm-21.332032-21.332031h21.332032c5.890624 0 10.667968-4.773438 10.667968-10.664062v-10.667969c0-5.890625-4.777344-10.664063-10.667968-10.664063h-21.332032zm0 0"/><path fill="white" d="m232.699219 384.003906c-4.0625.019532-7.785157-2.265625-9.601563-5.898437l-21.332031-42.671875c-2.628906-5.265625-.492187-11.679688 4.78125-14.308594 5.273437-2.636719 11.679687-.496094 14.3125 4.773438l21.332031 42.671874c1.648438 3.296876 1.480469 7.210938-.453125 10.355469-1.933593 3.140625-5.351562 5.058594-9.039062 5.078125zm0 0"/><path fill="white" d="m296.699219 384.003906h-10.664063c-17.675781 0-32.003906-14.332031-32.003906-32v-74.667968c0-5.890626 4.777344-10.664063 10.667969-10.664063s10.664062 4.773437 10.664062 10.664063v74.667968c0 5.886719 4.777344 10.667969 10.671875 10.667969h10.664063c5.890625 0 10.667969-4.78125 10.667969-10.667969v-74.667968c0-5.890626 4.773437-10.664063 10.664062-10.664063 5.894531 0 10.667969 4.773437 10.667969 10.664063v74.667968c0 17.667969-14.324219 32-32 32zm0 0"/><path fill="white" d="m414.03125 384.003906c-5.890625 0-10.664062-4.777344-10.664062-10.667968v-64l-12.804688 17.066406c-2.097656 2.554687-5.226562 4.027344-8.527344 4.027344-3.308594 0-6.4375-1.472657-8.535156-4.027344l-12.796875-17.066406v64c0 5.890624-4.777344 10.667968-10.671875 10.667968-5.886719 0-10.664062-4.777344-10.664062-10.667968v-96c0-4.589844 2.9375-8.667969 7.292968-10.117188 4.355469-1.453125 9.152344.042969 11.90625 3.71875l23.46875 31.285156 23.464844-31.285156c2.753906-3.675781 7.550781-5.171875 11.90625-3.71875 4.355469 1.449219 7.292969 5.527344 7.292969 10.117188v96c0 5.890624-4.773438 10.667968-10.667969 10.667968zm0 0"/><path fill="white" d="m83.367188 128.003906c0 5.890625-4.773438 10.664063-10.667969 10.664063-5.886719 0-10.664063-4.773438-10.664063-10.664063 0-5.894531 4.777344-10.667968 10.664063-10.667968 5.894531 0 10.667969 4.773437 10.667969 10.667968zm0 0"/><path fill="white" d="m179.371094 128.003906c0 5.890625-4.777344 10.664063-10.671875 10.664063-5.886719 0-10.667969-4.773438-10.667969-10.664063 0-5.894531 4.78125-10.667968 10.667969-10.667968 5.894531 0 10.671875 4.773437 10.671875 10.667968zm0 0"/><path fill="white" d="m531.363281 128.003906c0 5.890625-4.773437 10.664063-10.664062 10.664063s-10.667969-4.773438-10.667969-10.664063c0-5.894531 4.777344-10.667968 10.667969-10.667968s10.664062 4.773437 10.664062 10.667968zm0 0"/><path fill="white" d="m435.363281 128.003906c0 5.890625-4.773437 10.664063-10.664062 10.664063-5.894531 0-10.667969-4.773438-10.667969-10.664063 0-5.894531 4.773438-10.667968 10.667969-10.667968 5.890625 0 10.664062 4.773437 10.664062 10.667968zm0 0"/><path fill="white" d="m307.367188 128.003906c0 5.890625-4.777344 10.664063-10.667969 10.664063s-10.664063-4.773438-10.664063-10.664063c0-5.894531 4.773438-10.667968 10.664063-10.667968s10.667969 4.773437 10.667969 10.667968zm0 0"/><path fill="white" d="m83.367188 512c0 5.890625-4.773438 10.671875-10.667969 10.671875-5.886719 0-10.664063-4.78125-10.664063-10.671875 0-5.886719 4.777344-10.667969 10.664063-10.667969 5.894531 0 10.667969 4.78125 10.667969 10.667969zm0 0"/><path fill="white" d="m179.371094 512c0 5.890625-4.777344 10.671875-10.671875 10.671875-5.886719 0-10.667969-4.78125-10.667969-10.671875 0-5.886719 4.78125-10.667969 10.667969-10.667969 5.894531 0 10.671875 4.78125 10.671875 10.667969zm0 0"/><path fill="white" d="m531.363281 512c0 5.890625-4.773437 10.671875-10.664062 10.671875s-10.667969-4.78125-10.667969-10.671875c0-5.886719 4.777344-10.667969 10.667969-10.667969s10.664062 4.78125 10.664062 10.667969zm0 0"/><path fill="white" d="m435.363281 512c0 5.890625-4.773437 10.671875-10.664062 10.671875-5.894531 0-10.667969-4.78125-10.667969-10.671875 0-5.886719 4.773438-10.667969 10.667969-10.667969 5.890625 0 10.664062 4.78125 10.664062 10.667969zm0 0"/><path fill="white" d="m307.367188 512c0 5.890625-4.777344 10.671875-10.667969 10.671875s-10.664063-4.78125-10.664063-10.671875c0-5.886719 4.773438-10.667969 10.664063-10.667969s10.667969 4.78125 10.667969 10.667969zm0 0"/></svg>