<?xml version="1.0"?>
<svg xmlns="http://www.w3.org/2000/svg" viewBox="0 0 64 64" width="512" height="512">
<g id="outline" fill="white">
<path d="M25,62H39a4,4,0,0,0,4-4V38a23.809,23.809,0,0,0-3.1-11.447l-2.988-5.975A7.481,7.481,0,0,1,36,17V8h1a1,1,0,0,0,1-1V4.969A2.988,2.988,0,0,0,35,2H29a2.988,2.988,0,0,0-3,2.969V7a1,1,0,0,0,1,1h1v9a7.481,7.481,0,0,1-.907,3.578L24.12,26.526A23.843,23.843,0,0,0,21,38V58A4,4,0,0,0,25,62ZM28,4.969A1,1,0,0,1,29,4h6a1,1,0,0,1,1,.969V6H28ZM34,8v2H30V8ZM23,38A21.657,21.657,0,0,1,25.9,27.447l2.987-5.975A9.446,9.446,0,0,0,30,17V12h4v5a9.446,9.446,0,0,0,1.118,4.472l3,6A21.622,21.622,0,0,1,41,38v2H23Zm0,4H41V54H23Zm0,14H41v2a2,2,0,0,1-2,2H25a2,2,0,0,1-2-2Z"/>
<rect x="37" y="37" width="2" height="2"/>
<rect x="34" y="33" width="2" height="2"/></g></svg>
